<?xml version="1.0" encoding="utf-8"?>
<!-- Generator: Adobe Illustrator 24.2.3, SVG Export Plug-In . SVG Version: 6.00 Build 0)  -->
<svg version="1.1" id="Capa_1" xmlns="http://www.w3.org/2000/svg" xmlns:xlink="http://www.w3.org/1999/xlink" x="0px" y="0px"
	 viewBox="0 0 512 512" style="enable-background:new 0 0 512 512;" xml:space="preserve">
<g>
	<path d="M205,283.1C205,283.1,205,283.1,205,283.1C204.9,283.1,204.9,283.1,205,283.1c-16.4-16.4-43-16.4-59.4,0
		c-16.4,16.4-16.4,43,0,59.4c0,0,0,0,0,0c0,0,0,0,0,0c8.2,8.2,18.9,12.3,29.7,12.3c10.8,0,21.5-4.1,29.7-12.3h0
		C221.3,326.1,221.3,299.5,205,283.1L205,283.1z M156.2,293.7c8.6-8.6,21.7-10.3,32.1-4.5l-36.7,36.7
		C146,315.5,147.5,302.4,156.2,293.7L156.2,293.7z M194.3,331.9c-8.7,8.7-21.9,10.2-32.1,4.5l36.7-36.7
		C204.5,310,203,323.2,194.3,331.9L194.3,331.9z M366.5,283.1C366.5,283.1,366.5,283.1,366.5,283.1
		C366.4,283.1,366.4,283.1,366.5,283.1c-16.4-16.4-43-16.4-59.4,0c-16.4,16.4-16.4,43,0,59.4c0,0,0,0,0,0c0,0,0,0,0,0
		c8.2,8.2,18.9,12.3,29.7,12.3c10.8,0,21.5-4.1,29.7-12.3h0C382.8,326.1,382.8,299.5,366.5,283.1z M317.7,293.7
		c8.6-8.6,21.7-10.3,32.1-4.5l-36.7,36.7C307.5,315.5,309,302.4,317.7,293.7z M355.8,331.9c-8.7,8.7-21.9,10.2-32.1,4.5l36.7-36.7
		C366,310,364.5,323.2,355.8,331.9z M417.6,442.8c8.6,4.8,7.4-59,7.4-63.1V37.9c0-20.7-16.8-37.5-37.5-37.5H205.3
		c-4.1,0-7.5,3.4-7.5,7.5s3.4,7.5,7.5,7.5h43.3v482h-124c-12.4,0-22.5-10.1-22.5-22.5v-437c0-12.4,10.1-22.5,22.5-22.5h45.8
		c130,0,29.2-3.1,29.2-7.3s103.9-7.7-29.2-7.7h-45.8C103.8,0.4,87,17.3,87,37.9v437c0,20.7,16.8,37.5,37.5,37.5h263
		c20.7,0,37.5-16.8,37.5-37.5v-60.3c0-4.1-3.4-7.5-7.5-7.5s-7.5,3.4-7.5,7.5v60.3c0,12.4-10.1,22.5-22.5,22.5h-124v-482h124
		c12.4,0,22.5,10.1,22.5,22.5v341.7C410,383.8,408.5,437.8,417.6,442.8z M205,57.8C205,57.7,205,57.7,205,57.8
		C204.9,57.7,204.9,57.7,205,57.8c-16.4-16.4-43-16.4-59.4,0c-16.4,16.4-16.4,43,0,59.4c0,0,0,0,0,0c0,0,0,0,0,0
		c8.2,8.2,18.9,12.3,29.7,12.3c10.8,0,21.5-4.1,29.7-12.3h0C221.3,100.8,221.3,74.1,205,57.8L205,57.8z M156.2,68.3
		c8.6-8.6,21.7-10.3,32.1-4.5l-36.7,36.7C146,90.2,147.5,77,156.2,68.3L156.2,68.3z M194.3,106.5c-8.7,8.7-21.9,10.2-32.1,4.5
		l36.7-36.7C204.5,84.7,203,97.8,194.3,106.5z M366.5,57.8C366.5,57.7,366.5,57.7,366.5,57.8C366.4,57.7,366.4,57.7,366.5,57.8
		c-16.4-16.4-43-16.4-59.4,0c-16.4,16.4-16.4,43,0,59.4c0,0,0,0,0,0c0,0,0,0,0,0c8.2,8.2,18.9,12.3,29.7,12.3
		c10.8,0,21.5-4.1,29.7-12.3h0C382.8,100.8,382.8,74.1,366.5,57.8z M317.7,68.3c8.6-8.6,21.7-10.3,32.1-4.5l-36.7,36.7
		C307.5,90.2,309,77,317.7,68.3z M355.8,106.5c-8.7,8.7-21.9,10.2-32.1,4.5l36.7-36.7C366,84.7,364.5,97.8,355.8,106.5z
		 M366.4,395.7c-16.4-16.4-43-16.4-59.4,0c-16.4,16.4-16.4,43,0,59.4c0,0,0,0,0,0c0,0,0,0,0,0c8.2,8.2,18.9,12.3,29.7,12.3
		c10.8,0,21.5-4.1,29.7-12.3h0C382.8,438.8,382.8,412.1,366.4,395.7C366.5,395.7,366.5,395.7,366.4,395.7
		C366.4,395.7,366.4,395.7,366.4,395.7z M317.7,406.3c8.6-8.6,21.7-10.3,32.1-4.5l-36.7,36.7C307.5,428.2,309,415,317.7,406.3z
		 M355.8,444.5c-8.7,8.7-21.9,10.2-32.1,4.5l36.7-36.7C366,422.7,364.5,435.8,355.8,444.5z M204.9,395.7c-16.4-16.4-43-16.4-59.4,0
		c-16.4,16.4-16.4,43,0,59.4c0,0,0,0,0,0c0,0,0,0,0,0c8.2,8.2,18.9,12.3,29.7,12.3c10.8,0,21.5-4.1,29.7-12.3h0
		C221.3,438.8,221.3,412.1,204.9,395.7C205,395.7,205,395.7,204.9,395.7C204.9,395.7,204.9,395.7,204.9,395.7L204.9,395.7z
		 M156.2,406.3c8.6-8.6,21.7-10.3,32.1-4.5l-36.7,36.7C146,428.2,147.5,415,156.2,406.3z M194.3,444.5c-8.7,8.7-21.9,10.2-32.1,4.5
		l36.7-36.7C204.5,422.7,203,435.8,194.3,444.5L194.3,444.5z M366.5,170.4C366.5,170.4,366.5,170.4,366.5,170.4
		C366.4,170.4,366.4,170.4,366.5,170.4c-16.4-16.4-43-16.4-59.4,0c-16.4,16.4-16.4,43,0,59.4c0,0,0,0,0,0c0,0,0,0,0,0
		c8.2,8.2,18.9,12.3,29.7,12.3c10.8,0,21.5-4.1,29.7-12.3h0C382.8,213.4,382.8,186.8,366.5,170.4L366.5,170.4z M317.7,181
		c8.6-8.6,21.7-10.3,32.1-4.5l-36.7,36.7C307.5,202.9,309,189.7,317.7,181z M355.8,219.2c-8.7,8.7-21.9,10.2-32.1,4.5l36.7-36.7
		C366,197.3,364.5,210.5,355.8,219.2z M205,170.4C205,170.4,205,170.4,205,170.4C204.9,170.4,204.9,170.4,205,170.4
		c-16.4-16.4-43-16.4-59.4,0c-16.4,16.4-16.4,43,0,59.4c0,0,0,0,0,0c0,0,0,0,0,0c8.2,8.2,18.9,12.3,29.7,12.3
		c10.8,0,21.5-4.1,29.7-12.3h0C221.3,213.4,221.3,186.8,205,170.4L205,170.4z M156.2,181c8.6-8.6,21.7-10.3,32.1-4.5l-36.7,36.7
		C146,202.9,147.5,189.7,156.2,181z M194.3,219.2c-8.7,8.7-21.9,10.2-32.1,4.5l36.7-36.7C204.5,197.3,203,210.5,194.3,219.2
		L194.3,219.2z"/>
</g>
</svg>
