<?xml version="1.0" encoding="utf-8"?>
<!-- Generator: Adobe Illustrator 24.2.3, SVG Export Plug-In . SVG Version: 6.00 Build 0)  -->
<svg version="1.1" id="Layer_1" xmlns:xodm="http://www.corel.com/coreldraw/odm/2003"
	 xmlns="http://www.w3.org/2000/svg" xmlns:xlink="http://www.w3.org/1999/xlink" x="0px" y="0px" viewBox="0 0 1417.3 1417.3"
	 style="enable-background:new 0 0 1417.3 1417.3;" xml:space="preserve">
<style type="text/css">
	.st0{fill-rule:evenodd;clip-rule:evenodd;fill:none;stroke:#020202;stroke-miterlimit:10;}
	.st1{display:none;}
	.st2{display:inline;}
	.st3{fill-rule:evenodd;clip-rule:evenodd;fill:#F42200;stroke:#212121;stroke-miterlimit:10;}
</style>
<rect x="1075.9" y="878.8" class="st0" width="20" height="20"/>
<g id="Слой_x0020_1">
	<g class="st1">
		<g class="st2">
		</g>
	</g>
	<g class="st1">
		<g class="st2">
		</g>
	</g>
	<g class="st1">
		<g class="st2">
		</g>
	</g>
	<g id="_1528516405936">
		<path class="st3" d="M707.5,1285.3c-96.7,0-196.8-27.3-265.9-62.7c-9.8-5-13.8-8.2-23.8-13.3C348,1174,269.4,1100,224.2,1034.7
			c-31.4-45.4-32.3-50.5-53.6-94.7c-16.5-34.2-28.3-70.5-38-110.3c-26.4-107.9-17.7-221,15.6-321c28.2-84.5,74.8-158.1,133.5-221.6
			c15.9-17.2,19.3-16.7,29.2-26.4C352.6,220,409.9,184.2,462,160c153.9-71.4,374.6-72.8,532.3,22.4
			c63.4,38.3,102.6,69.1,152.5,123.1c111.1,120.1,159.8,290,144,455.4c-11.8,123.6-60.6,219.6-131.6,310.9c-5.5,7.1-6.3,8-12.4,14.1
			c-16.6,16.3-10.6,17.5-42.1,42.7l-29.6,26.1c-10.8,8.8-20.5,15.6-31.7,23.9C957.2,1243,819.6,1285.3,707.5,1285.3L707.5,1285.3z
			 M66.3,678.5c0,155.3,35.1,268.9,115.5,385.3l111.6,121.6c106.4,89.5,249.9,150.2,395.6,150.2c102.5,0,198.6-14.4,288-59.1
			c98.7-49.4,149-89.8,221.4-170.8l48.9-67.7c15.8-26.7,28.8-46.4,41.7-77.5c38.7-93.3,57.2-155.7,57.2-266.1
			c0-196.2-87.7-351.3-186.1-449.8C999.7,84.3,784.8,24.7,559.8,72.4c-8.7,1.8-20.1,4.6-29.5,7.6c-74.1,23.9-150.2,55.2-210.3,105
			c-60.2,49.9-89.4,76-135.6,139.9C116.4,418.9,66.3,549.5,66.3,678.5L66.3,678.5z"/>
		<path class="st3" d="M858.6,954.1h18.5c30.4,0,22.3,42.4,5.3,42.4h-21.2v-7.9C861.2,972.4,858.6,969.2,858.6,954.1L858.6,954.1z
			 M871.8,927.6c-24.2,0-14.2-28.7-13.3-39.7C915.2,887.8,890.4,927.6,871.8,927.6z M230.6,726.2c0,77.7,16.6,122.2,38.1,187.1
			l20.2,54c12.5-1,32.5-12.3,43.2-17.7c56.7-28.6,107.6-5.8,155.6,22.8c16,9.5,27.1,18.8,41.8,29.7c37.5,27.7,57.5,20.8,114.4,20.8
			c13,0,8.2-11.3,7.9-21.2c-11.7-0.3-12.4-2.7-26.5-2.7c-10.8-46.4-2.7-42.4-2.7-74.2c6.8,4.6,9.1,8.5,15.5,13.6
			c27,21.8,88.6,86.4,117,87.1c0.3-11.6,2.8-16.5,2.7-31.7l2.6-108.7c21.2,0,16.8-1.5,34.4,2.6v111.3c-10.1,2.4-10.5,2.7-23.8,2.7
			c-6.5,28.1-10.3,21.2,84.8,21.2c23.3,0,49.2-2.8,66.9-7.3c15.4-3.9,41.8-14.4,41.8-32.4c0-49.7-29.1-29.5-29.1-47.7
			c0-9.1,40.6-18.5,11.1-53.5c-16.3-19.3-56.5-20.7-82.6-20.7h-159c0,38.6,18,2.1,23.5,29.5c1.6,8,0.4,32.3,0.4,42
			c-13.2-3.1-39.6-28.4-51-39.1c-6.8-6.4-10.3-7.6-17.3-14.5c-16.1-16.1-15.5-15.3-45.8-15.2c-27,0.1-28.9-9.1-50.3,5.2
			c3.2,13.9,2.4,9.8,15.6,13.6c9.8,2.9,5.6,2.2,13.6,7.6v113.9c-23.8-2-60-32.1-77.5-49.6c-48.3-48.5-80.7-84.5-106.8-152.8
			C363,681.1,389.1,565.7,460,462.8c4.7-6.9,4.7-6,9.6-11.6c4.9-5.6,5.5-7.6,10.6-13.2c70.6-76.4,177.5-130.5,282.9-130.5
			c126.2,0,146.8,28.6,236.7,73.3c40.2,20,35.8,27,60.1,32.6c-22.5-42.5-89.7-96.6-133.3-118.4c-128.3-64.1-271.4-62.3-405.4-9.6
			c-33.1,13-52.6,23.2-80.3,41.6c-13.9,9.3-22.7,15.9-35.2,25.8c-35,27.7-35.7,31.9-61.9,60c-28,30-43,53.2-63.1,87.9
			C244.5,563.6,230.6,650.4,230.6,726.2L230.6,726.2z"/>
		<path class="st3" d="M638.6,461.2l-2.7,2.7L638.6,461.2z M638.6,461.2L638.6,461.2z M636,463.9L604.6,504
			c-39.4,48.6-54.6,94.9-40.9,167.3c7.6,40,22.8,73.8,43.1,100c29.7,38.4,44.4,45.4,82.2,63.6c-2.7-11.5-23-42.3-30.3-54.5
			c-12.2-20.2-20.7-36.4-26.4-61c-5.3-23.1-6.6-56.2-0.9-80c5.9-24.6,15.9-39.1,33.1-54.3c28.5-25.2,41.5-12.5,56-1.6
			c38.4,29.2,13.7,16.6,54.2,33.3c51.5,21.2,21.2,76.3,84,90.9c0,28.1-26.8,41.4-2,70.9c10.5,12.5,43.6,29.3,65.6,29.8
			c14.4-21.6,34.3-46.5,56.7-59.9c16.2-9.7,20.6-6.1,25.5-14.3c2.8-4.7-17.2-216.4-18.3-230.7c-2.2-28-5.5-53.1-5.5-81.9
			c19.4-4.1,75.7,12.7,35-16.4l-32.3-15.4c-10-5-21-12.1-34.4-13.2l10.8,79.3c1,11.5,1.3,28.8,2.8,42.2l7.6,132.9
			c-0.1,18.5,2.3,27.4,2.7,42.3c0.5,15.5-0.1,32.1-0.1,47.8c-62.3,14.5-43.8,55-74.2,55.6c-6.3-26.9-3.5-38.3-5.1-69.1
			c-0.8-16.1-5.5-13.7-15.3-21.8c-25.6-20.9-23.2-39.1-45-68.9c-13.4-18.3-21.6-24.3-40.1-36.8c-28.2-19.1-55.5-52.3-64.2-86.9
			c-12.8-50.6,2.6-84.1,21.3-119.3l-70.6,24.8c-25.6,7.6-53.1,13.1-75.1,22.9c-51.5,22.9-69.4,56.6-91.9,104.2
			c-21,44.5-22.3,110.8-10.4,165c8,36.2,40.7,111,75.8,120.3l-14.2-46.7c-27-79.3-50.2-168.2,5.5-242.9
			C579.2,507.6,620.5,468,636,463.9L636,463.9z"/>
		<path class="st3" d="M718.1,1110.4c-90.9,0-165.4-31.8-236.8-68c-12.2-6.2-56.1-31.5-70.6-32.7c15.4,22.9,32.6,40.5,55.6,55.7
			c11.5,7.5,21.5,14.2,33.9,21.7c13,7.9,23.7,11.8,37.6,18.1c142,63.9,274.8,55,409.7-25c26.3-15.6,104.1-64.3,111.7-95l3.3-68.2
			c-8.5,3.1-6.7,4.4-15.5,16.3c-5.3,7.1-8.9,12.8-14.3,20.1c-10.4,14-19.5,22.5-31.7,34.6c-17,16.8-56.6,43.5-77.8,57.3
			C870.8,1079.6,779.6,1110.4,718.1,1110.4L718.1,1110.4z"/>
		<path class="st3" d="M1133.7,884c0-9.2,4.8-8.4,16.3-9.1v18.3h-16.3V884z M1107.6,885.2c0-8,3.1-7.3,10.6-7.9v15.9h-10.6V885.2z
			 M1089.1,878.5v14.7h-13.2l0.1-14.7 M1142.1,850.8h7.9c0,10.7,2.7,19.1-4.9,19.9C1137.8,871.4,1142.1,861.9,1142.1,850.8z
			 M1110.3,850.8h7.9c0,10.5,2.7,19.5-5,19.8C1104.4,871,1110.3,861.9,1110.3,850.8z M1086.4,848.1c1.9,4,4.2,8.2,2.5,15.8
			c-3,13.2-16.7,7.5-12.9-7C1078,849.5,1079.4,850,1086.4,848.1L1086.4,848.1z M1139.4,837.5c0-8,3.1-7.3,10.6-7.9v15.9
			C1142.6,844.8,1139.4,845.5,1139.4,837.5z M1107.6,837.5c0-8,3.1-7.3,10.6-7.9v15.9C1110.8,844.8,1107.6,845.5,1107.6,837.5z
			 M1075.8,829.6h13.2c0.5,7.9,0.6,11.1-5.3,9.6C1076.5,840,1076.5,840,1075.8,829.6z M967.2,840.2c0,69.1-8.1,63.6,135.1,63.6
			h129.8c34.8,0,29.1-39.6,29.1-63.6c0-20.6-45.9-21.4-68.9-21.2l-87.5-2.6C1085.9,816.3,967.2,815.9,967.2,840.2L967.2,840.2z"/>
		<path class="st3" d="M1067.9,744.8c0,38.9-6,68.9,7.9,68.9h79.5c0-72.8,7.8-77.4-14.9-88.4c-5.1-2.5-17.8-9.6-22.2-9.6
			C1101.5,715.6,1067.9,730.5,1067.9,744.8L1067.9,744.8z"/>
		<path class="st3" d="M1070.5,970c0,27.9,52.2,49.2,77.4,21.8c17-18.6,9.4-61.6,7.4-85.3h-84.8V970z"/>
		<path class="st3" d="M1163.3,723.6c11.3-48.7-23.2-207.9-60.9-233.2c-4.3,51.8,29.8,61.2,29.1,188.1
			C1131.4,695.8,1125.8,720.4,1163.3,723.6z"/>
		<path class="st3" d="M294.2,349.9L294.2,349.9z M326,339.3L326,339.3z M326,320.8l-2.6-2.7L326,320.8z M323.3,318.1L323.3,318.1z
			 M326,339.3c-12.6-2.9-22.8-10.5-34.4-13.2c-7.1,4.8-18.8,17.4-21.2,26.5c12.7-3.4,4.5-13.1,28.5,11.3
			c10,10.1,14.5,16.5,27.2,23.2c-2.6,9.8-2.7,3.4-5.3,13.3c9.6-0.8,8.8-2.7,13.1-8.1c5.2-6.3,5.9-4.9,8-13.1
			c-9.8,2.6-3.4,2.7-13.2,5.3c-10.2-15.3-24.6-19.8-34.4-34.4c12,2.8,49.1,27,55.2,24.5c7.4-3-5.9-19.5-9.2-25.5
			c-5.5-10.1-11.6-17.3-14.2-28.2c12.3,8.2,23.6,21.9,34.4,29.1c-3.8,14.4-7,2.8-2.7,13.2c8.9-2.4,7.5-6.2,20.8-19.3
			c4.3-4.2,7.3-5.4,6.5-9.3c-1.5-6.9-2.2-0.4-11.4,2c-6.7-10-15.2-17.1-25.4-25c-28.6-22.1-17-18-14.4-28
			c-10.4,2.8-18.5,13.2-23.8,21.2C313.7,320.4,322.9,326,326,339.3L326,339.3z"/>
		<path class="st3" d="M628,153.9c5.9,8.2-1.1,5.1,10.6,2.6c0,13.4,2.7,14.4,2.7,29.1l-21.2,2.6c-0.9-10.9-2.6-14.4-2.6-29.1
			c13.9-1.2,4.8,2.5,7.9-5.3c-13.1,0-29,2.8-39.7,5.3c2.8,7-5.5,4.9,10.6,5.3c0,23.4,6.2,42.7,7.9,63.6c-13.9,1.2-4.8-2.5-7.9,5.3
			l37-3.2l0.1-7.4c-15.1-1.6-6.9-2-13.3-29.1c13.3,0,13.7-0.3,23.8-2.7c0,10.7,2.4,16.4,2.3,21.7c-0.2,14-3.7,4.6-7.6,15.4
			c13.7,0,27.2-4.3,39.7-5.3c-2.8-7,5.5-4.9-10.6-5.3l-8.5-63.5c14.4-1.3,5.3,2.5,8.5-5.4C655,148.6,636.1,150,628,153.9L628,153.9z
			"/>
		<path class="st3" d="M230.6,413.5c30.1,7,23.8,28.7,10.6,24.1c-7.7-2.6-6.7-5.8-15.9-8.2C226.4,415.9,227.3,425.9,230.6,413.5
			L230.6,413.5z M262.4,421.5L262.4,421.5z M262.4,421.5c0-34.2-22.7-27.6-31.9-16c-5.4,6.8-24.4,36.3-26.4,45.2
			c16.8-4.5-2.7-11.9,34.6,10.5c27.7,16.6,29.6,12.8,26.4,26.6c8.5-2.3,11.7-10.2,19-23.8c9-16.8,0.3-2.1-13.1-8.2
			c-7.5-3.4-10.5-8.1-19.1-10.4c12.8-24.3,22.3,5.1,39.7,0c6-1.8,22.9-21.4,13.1-24.1c-6.4-1.8,2.4-1.9-7.8,5.6
			C281.8,418.9,281.9,416.9,262.4,421.5L262.4,421.5z"/>
		<path class="st3" d="M167,633.5c55,0,53,2.5,53,29.1c-14.9,0-33-4.4-48-5.1c-12.8-0.6-16.6,3.2-17-6.8
			C154.6,641.9,158.8,633.5,167,633.5z M145.8,686.5c8.4-3.1,3.8,5.8,5.3-7.9c30,0,47.7,5.3,66.2,5.3c-2.4,11.4-6.4,6.9,5.3,7.9
			c0-18.9,10.5-57-7.4-72.1c-17.9-15.1-51.4-15.4-62.3,12.9C149.1,642.2,145.8,673.9,145.8,686.5z"/>
		<path class="st3" d="M887.7,493c0,4.5,18,23.9,23.2,29.8c5.7,6.4,7,6.3,12.3,14.2c2.3,3.4,3,4.7,5.2,8l6.9,9
			c1.2-14.9,7.9-21.1,7.9-39.7c0-6.8-18.5-22.1-18.5-29.1c0-4.4,12.2-96.7-25.7-20.4C897.3,468.5,887.7,491.1,887.7,493L887.7,493z"
			/>
		<path class="st3" d="M834.7,175.1l-3.6,7c-6.9,18.6-8.8,44.7-19,49.5c-6.2,2.9-3.3-3.6-6.6,4.4c4.8,2.3,20.5,6.5,26.5,7.9V236
			h-7.9l14.9-51.3c0.2-0.4,0.6-1.1,1-1.7c3,13,21,68.2,29.1,74.2l21.2-68.9l10.5,3c-2.1-8.7-9.5-11.8-19.7-12.3
			c-19.4-0.9,2.3-2.5,0.4,16c-0.7,7-3.7,11.5-4.4,19.8h-5.3c-1.4-16.9-7.8-41.7-24.7-46.8c-6.7-2-13.2-3.4-20.3-3.5
			C830.5,173.7,830.3,164.1,834.7,175.1L834.7,175.1z"/>
		<path class="st3" d="M164.3,561.9c10.4-3.8,0.3-0.4,10.6-7.9l58.3,18.5l-3,10.5c10.4-2.6,9.4-6.8,15.7-29.6
			c3.7-13.3,8.5-21.6,8.5-36.5c-11.3-0.9-12.5-4.4-23.8-5.3c3.5,13.2,13.3,11.3,13.3,21.2c0,9.1-2,10.3-2.7,18.5
			c-12.3-0.3-17.7-4.4-29.1-5.3c1.1-13.2,2.5-10.6,15.9-10.6v-7.9c-12.1-1-21.1-5.5-31.8-7.9c1.8,16.7-1.2,0.6,5.8,10.7
			c12.2,17.6-13.7,6.1-24.3,5.2c3.9-16.7,4.1-23.8,23.8-23.8v-7.9c-6.3-1.5-13.3-2.8-18.5-5.3C178.7,507.1,165.3,550.7,164.3,561.9
			L164.3,561.9z"/>
		<path class="st3" d="M492.9,206.9L492.9,206.9z M492.9,206.9c15.1,4,49.8,38.4,66.2,39.7c-5-21.6-15.6-43.8-19.6-57.6
			c-4.4-15.2,0.3-6.4,3.7-19.2c-4.1,1-10.2,2.3-14.5,4c-9,3.6-6.5-1.3-9.3,9.2c6.9-0.6,11.9-10.9,21.2,29.1
			c-55-36.8-34.9-26.5-68.9-18.5v5.3c12.5,0.3,8.6-2.5,18.9,26.2c3,8.3,9.4,25,10.3,34.8c-11.3,3-11.5,6.9-1.9,6.1
			c5-0.4,14.4-4.7,20.5-6.1v-5.3c-13.9-0.3-7.8,2.5-13.1-5.5L492.9,206.9L492.9,206.9z"/>
		<path class="st3" d="M935.4,254.6c10-2.7,7.7-5.1,15.9-10.6v18.5C940.7,261.6,940.1,260.9,935.4,254.6z M903.6,265.2
			c1.8,6.9,3.2,7.1,8.3,10.5c3.6,2.4,7.6,5.4,11.7,3.9c16.7-6.3-19.8,0.5,6.4-17.1c11.9,2.8,8.5,5.3,18.5,7.9
			c-0.6,7.2-1.2,7.2-2.7,13.2l-2.6,0.4c-7.5,2.5-3.6-1.2-8,4.9c7.8,4.2,14.5,6.8,22.8,11.9c23,14.1,10.6-2.5,10.6-2.5
			c-7-29.1,23.1-92.9-3.3-75.3c-2.4,1.6-6.4,6.1-10.1,9.1l-39.2,32.4C907.6,269.4,915.3,267.9,903.6,265.2L903.6,265.2z"/>
		<path class="st3" d="M736.7,180.4c6.2,4.6,7.1,8.4,7.9,18.5h-15.9C732,192.6,734.9,188.1,736.7,180.4z M704.9,217.5v5.3
			c10.2,0.9,10.4,2.7,23.8,2.7c-3.4-9.4-5.6-4.5-7.9-13.3c9.2-10.6,3.2-7.9,7.9-7.9c13.5,0,21.2,2,21.2,15.9
			c-30.5,3.3,20,13.6,31.8,7.9c-10.2-13.9-4.5,6.3-16.5-36.5c-2.7-9.6-8.7-34.6-12.7-43c-9.6,2.6-8.9,6.7-13.3,15.9
			c-3.2,6.6-6,12.2-9.7,19.5C718,207,718,216.4,704.9,217.5L704.9,217.5z"/>
		<path class="st3" d="M408.1,265.2c8.5,4.5,8.9,5.9,15.9,10.6c-4.1,5.6-7.5,6.8-13.2,10.6C410.7,276.4,409.2,273.6,408.1,265.2
			L408.1,265.2z M429.3,304.9c-6.6-2.7-5.5-1.4-13.2,2.6c-0.2-8.1-1.2-9.7-2.7-15.9c7-3.7,11.5-6.9,18.5-10.6
			c18.6,16.2,2.5,5.4,7.9,18.5c9-6,26.3-15.7,31.8-23.8c-17.3-7.2,11.7,14-40.3-20.6c-47.1-31.4-39.9-36.7-22.5,44.1
			c4.2,19.6-11.5,21.1,0.9,19.8C414.6,318.4,426.9,308.1,429.3,304.9z"/>
	</g>
</g>
</svg>
