<svg id="Capa_1" enable-background="new 0 0 512 512" height="512" viewBox="0 0 512 512" width="512" xmlns="http://www.w3.org/2000/svg"><g><path id="XMLID_6_" d="m280.135 396.093v-34.296h34.296c5.523 0 10-4.477 10-10v-24.297c0-5.523-4.477-10-10-10h-34.296v-34.296c0-5.523-4.477-10-10-10h-24.296c-5.523 0-10 4.477-10 10v34.296h-34.296c-5.523 0-10 4.477-10 10v24.296c0 5.523 4.477 10 10 10h34.296v34.296c0 5.523 4.477 10 10 10h24.296c5.523.001 10-4.477 10-9.999z"/><path d="m511.987 217.648c0-5.523-4.477-10-10-10h-84.68l47.602-55.308c16.15-18.764 15.088-47.176-2.418-64.682s-45.918-18.569-64.682-2.418l-142.222 122.408h-241.6c-5.523 0-10 4.477-10 10 0 67.846 26.421 131.631 74.395 179.605 17.598 17.598 37.33 32.283 58.604 43.84v50.15c0 11.445 9.312 20.757 20.757 20.757h200.489c11.445 0 20.757-9.312 20.757-20.757v-50.15c21.273-11.557 41.005-26.242 58.604-43.84 47.973-47.974 74.394-111.76 74.394-179.605zm-101.131-117.25c10.878-9.362 27.347-8.745 37.493 1.402 10.147 10.147 10.763 26.616 1.402 37.493l-58.831 68.354h-104.674zm-51.867 390.845c0 .417-.339.757-.757.757h-200.489c-.417 0-.757-.339-.757-.757v-40.409c31.463 13.636 65.679 20.814 101.001 20.814s69.538-7.177 101.001-20.814v40.409zm-101.002-39.595c-62.503 0-121.266-24.34-165.463-68.537-41.831-41.831-65.874-96.714-68.328-155.463h467.583c-2.454 58.749-26.498 113.632-68.329 155.463-44.197 44.196-102.959 68.537-165.463 68.537z"/><path d="m100.277 162.724c.148 0 .301 0 .45-.001 9.666-.042 19.198-1.471 28.388-4.229 9.192 2.76 18.721 4.187 28.397 4.229.15 0 .299.001.45.001 26.597 0 51.676-10.394 70.662-29.295 19.09-19.007 29.604-44.211 29.603-70.972 0-21.05-6.457-41.202-18.669-58.274-1.709-2.39-4.384-3.907-7.312-4.148-2.936-.24-5.815.818-7.893 2.895-8.814 8.815-19.696 14.767-31.467 17.213-26.893 5.589-49.479 21.914-63.68 43.891-14.377-22.429-37.162-38.344-63.852-43.891-11.771-2.446-22.653-8.398-31.467-17.213-2.078-2.078-4.964-3.131-7.893-2.895-2.928.241-5.603 1.758-7.312 4.148-12.214 17.073-18.669 37.224-18.669 58.274 0 26.76 10.513 51.965 29.603 70.972 18.986 18.902 44.062 29.295 70.661 29.295zm96.678-123.001c11.606-2.412 22.529-7.366 32.13-14.513 6.007 11.426 9.142 24.116 9.142 37.247 0 21.401-8.422 41.573-23.714 56.798-15.294 15.228-35.486 23.542-56.912 23.468-5.199-.023-10.341-.551-15.384-1.555 7.202-14.871 19.982-26.759 35.584-32.664 5.165-1.955 7.768-7.727 5.812-12.893-1.955-5.164-7.726-7.768-12.893-5.812-14.999 5.677-28.013 15.581-37.598 28.155.169-37.699 26.958-70.567 63.833-78.231zm-167.8-14.513c9.601 7.147 20.524 12.102 32.13 14.513 25.627 5.326 46.762 22.6 57.168 46.505-2.175 6.386-3.725 13.033-4.57 19.866-7.612-7.012-16.492-12.558-26.363-16.295-5.167-1.956-10.938.648-12.893 5.812-1.955 5.165.647 10.938 5.812 12.893 15.348 5.809 27.603 17.424 34.745 32.821-4.776.898-9.637 1.377-14.545 1.399-21.387.085-41.618-8.24-56.912-23.468-15.293-15.226-23.714-35.398-23.714-56.799 0-13.131 3.135-25.821 9.142-37.247z"/></g></svg>