<?xml version="1.0" encoding="utf-8"?>
<!-- Generator: Adobe Illustrator 24.2.3, SVG Export Plug-In . SVG Version: 6.00 Build 0)  -->
<svg version="1.1" id="Layer_1" xmlns="http://www.w3.org/2000/svg" xmlns:xlink="http://www.w3.org/1999/xlink" x="0px" y="0px"
	 viewBox="0 0 512 512" style="enable-background:new 0 0 512 512;" xml:space="preserve">
<g id="Line_cutting_stroke_EX">
	<g>
		<path d="M296,352v16h152c4.4,0,8-3.6,8-8v-72c0-4.4-3.6-8-8-8H296v16h144v56H296z"/>
		<path d="M480,432H296v16h184c0,17.7-14.3,32-32,32H272c-2.2,0-5.6,4.8-7.6,2.4l-2,12.6c3.2,0.6,6.4,1,9.6,1h176
			c26.5,0,48-21.5,48-48V296h-16V432z"/>
		<path d="M458,168h-2v-24h6c9.9,0,18-8.1,18-18V44c0-15.5-12.5-28-28-28H304v16h148c6.6,0,12,5.4,12,12v82c0,1.1-0.9,2-2,2H258
			c-1.1,0-2-0.9-2-2V44c0-6.6,5.4-12,12-12h20V16h-20c-15.5,0-28,12.5-28,28v82c0,9.9,8.1,18,18,18h6v24h-2c-21,0-38,17-38,38v2h16
			v-2c0-12.1,9.9-22,22-22h196c12.1,0,22,9.9,22,22v34H280v16h200v24h16v-74C496,185,479,168,458,168z M280,168v-24h160v24H280z"/>
		<path d="M272,48h16v64h-16V48z"/>
		<path d="M304,48h16v64h-16V48z"/>
		<path d="M336,48h16v64h-16V48z"/>
		<path d="M368,48h16v64h-16V48z"/>
		<path d="M400,48h16v64h-16V48z"/>
		<path d="M432,48h16v64h-16V48z"/>
		<path d="M296,392h48v16h-48V392z"/>
		<path d="M360,392h96v16h-96V392z"/>
		<path d="M124.2,159l23.8,13l13,23.8c2.1,3.9,7,5.3,10.9,3.2c1.3-0.7,2.4-1.8,3.2-3.2l13-23.8l23.8-13c3.9-2.1,5.3-7,3.2-10.9
			c-0.7-1.3-1.8-2.4-3.2-3.2L188,132l-13-23.8c-2.1-3.9-7-5.3-10.9-3.2c-1.3,0.7-2.4,1.8-3.2,3.2L148,132l-23.8,13
			c-3.9,2.1-5.3,7-3.2,10.9C121.7,157.2,122.8,158.3,124.2,159z M157.7,144.9c1.3-0.7,2.4-1.8,3.2-3.2l7.1-13l7.1,13
			c0.7,1.3,1.8,2.4,3.2,3.2l13,7.1l-13,7.1c-1.3,0.7-2.4,1.8-3.2,3.2l-7.1,13l-7.1-13c-0.7-1.3-1.8-2.4-3.2-3.2l-13-7.1L157.7,144.9
			z"/>
		<path d="M280,302c0-43.1-34.9-78-78-78h-4c-37,0.1-69,26.1-76.4,62.4l15.7,3.2c6-28.8,31.3-49.5,60.8-49.6h4c34.2,0,62,27.8,62,62
			v42h-48v16h48v16h-40v16h40v26c0,34.2-27.8,62-62,62h-4c-6.6,0-13.2-1-19.5-3.1l-5,15.2c7.9,2.6,16.2,3.9,24.5,3.9h4
			c43.1,0,78-34.9,78-78V302z"/>
		<path d="M38.3,104.9l16,8.8l8.8,16c2.1,3.9,7,5.3,10.9,3.2c1.3-0.7,2.4-1.8,3.2-3.2l8.8-16l16-8.8c3.9-2.1,5.3-7,3.2-10.9
			c-0.7-1.3-1.8-2.4-3.2-3.2l-16-8.8l-8.8-16c-2.1-3.9-7-5.3-10.9-3.2c-1.3,0.7-2.4,1.8-3.2,3.2l-8.8,16l-16,8.8
			c-3.9,2.1-5.3,7-3.2,10.9C35.8,103.1,36.9,104.2,38.3,104.9L38.3,104.9z M64,95c1.3-0.7,2.4-1.8,3.2-3.2l2.9-5.3l2.9,5.3
			c0.7,1.3,1.8,2.4,3.2,3.2l5.3,2.9l-5.3,2.9c-1.3,0.7-2.4,1.8-3.2,3.2l-2.9,5.3l-2.9-5.3c-0.7-1.3-1.8-2.4-3.2-3.2l-5.3-2.9L64,95z
			"/>
		<path d="M208,400c0-53-43-96-96-96s-96,43-96,96s43,96,96,96C165,495.9,207.9,453,208,400z M192,400c0,12.9-3.1,25.6-9.1,37
			L75,329.1c39.2-20.4,87.5-5.3,107.9,33.9C188.9,374.4,192,387.1,192,400z M162.6,461.9L93.7,393l-11.3,11.3l66.6,66.6
			c-39.2,20.4-87.5,5.3-107.9-33.9c-12.1-23.2-12.1-50.8,0-74l26.6,26.6L79,378.3l-28.9-28.9c3.4-4.1,7.2-7.9,11.3-11.3l112.5,112.5
			C170.5,454.7,166.7,458.5,162.6,461.9L162.6,461.9z"/>
	</g>
</g>
<rect x="61.1" y="384.9" transform="matrix(0.7071 0.7071 -0.7071 0.7071 301.9631 56.8479)" width="42.5" height="16"/>
<rect x="214.2" y="214.1" transform="matrix(-1.836970e-16 1 -1 -1.836970e-16 454.0752 -9.8768)" width="35.5" height="16"/>
<rect x="248.4" y="240" transform="matrix(-1 -1.224647e-16 1.224647e-16 -1 536.4286 496.0479)" width="39.6" height="16"/>
<rect x="184.4" y="344" transform="matrix(-1 -1.224647e-16 1.224647e-16 -1 408.4286 704.0479)" width="39.6" height="16"/>
<rect x="196.2" y="376" transform="matrix(-1 -1.224647e-16 1.224647e-16 -1 432.0039 768.0479)" width="39.6" height="16"/>
<rect x="288" y="392" transform="matrix(-1 -1.224647e-16 1.224647e-16 -1 659.8097 800)" width="83.8" height="16"/>
<rect x="268.7" y="16" transform="matrix(-1 -1.224647e-16 1.224647e-16 -1 606.5952 47.9521)" width="69.2" height="16"/>
<path d="M304,284v80c0,2.2-1.8,4-4,4h-8c-2.2,0-4-1.8-4-4v-80c0-2.2,1.8-4,4-4h8C302.2,280,304,281.8,304,284z"/>
<path d="M496,264v80c0,2.2-1.8,4-4,4h-8c-2.2,0-4-1.8-4-4v-80c0-2.2,1.8-4,4-4h8C494.2,260,496,261.8,496,264z"/>
<rect x="264.4" y="432" transform="matrix(-1 -1.224647e-16 1.224647e-16 -1 568.4286 880.0207)" width="39.6" height="16.1"/>
<rect x="206.3" y="480" transform="matrix(-1 -1.224647e-16 1.224647e-16 -1 480.8332 976.0479)" width="68.3" height="16"/>
<rect x="153" y="472" transform="matrix(-0.9112 -0.4119 0.4119 -0.9112 119.7113 985.8298)" width="26.1" height="16"/>
<path d="M117.7,317.5l4.1-32c0.1-0.7,0.7-1.2,1.5-1.1l13.2,1.7c0.7,0.1,1.2,0.7,1.1,1.5l-4.1,32c-0.1,0.7-0.7,1.2-1.5,1.1l-13.2-1.7
	C118.1,318.8,117.6,318.2,117.7,317.5z"/>
</svg>
