<?xml version="1.0" encoding="utf-8"?>
<!-- Generator: Adobe Illustrator 24.2.3, SVG Export Plug-In . SVG Version: 6.00 Build 0)  -->
<svg version="1.1" id="Capa_1" xmlns="http://www.w3.org/2000/svg" xmlns:xlink="http://www.w3.org/1999/xlink" x="0px" y="0px"
	 viewBox="0 0 512 512" style="enable-background:new 0 0 512 512;" xml:space="preserve">
<g>
	<path d="M509.1,2.9c-3.9-3.9-10.2-3.9-14.1,0L380,117.9l-7.1-7.1c-3.9-3.9-10.2-3.9-14.1,0l-32.9,32.9l-7.1-7.1
		c-11.7-11.7-30.7-11.7-42.4,0C262.4,150.6,96.5,316.5,87.6,325.4l-33.9-33.9c0,0,0,0,0,0c-13.3-0.9-16.9,11.4-10.7,17.5l58.8,58.8
		l-55.9,55.9l-32.2-32.2c0,0,0,0,0,0c-13.3-0.9-16.9,11.4-10.7,17.5l103.4,103.4c0,0,0,0,0,0c13.3,0.9,16.9-11.4,10.7-17.5
		l-28.8-28.8l55.9-55.9l62.2,62.2c0,0,0,0,0,0c13.3,0.9,16.9-11.4,10.7-17.5l-30.5-30.5c32.3-32.3,141.9-141.9,188.8-188.8
		c11.7-11.7,11.7-30.7,0-42.4l-7.1-7.1l40-40L394.1,132L509.1,17.1C513,13.2,513,6.8,509.1,2.9L509.1,2.9z M74.1,452L60,437.9
		l55.9-55.9l14.1,14.1L74.1,452z M101.7,339.6l22.4-22.4l70.7,70.7l-22.4,22.4L101.7,339.6z M361.2,221.5L334,248.7l-35.3-35.3
		c-3.9-3.9-10.2-3.9-14.1,0c-3.9,3.9-3.9,10.2,0,14.1l35.3,35.3L294,288.7l-35.3-35.3c-3.9-3.9-10.2-3.9-14.1,0
		c-3.9,3.9-3.9,10.2,0,14.1l35.3,35.3L254,328.7L215.2,290c-13.3-0.9-16.9,11.4-10.7,17.5l35.3,35.3L209,373.7L138.3,303
		l152.2-152.2c3.9-3.9,10.2-3.9,14.1,0c4.9,4.9,48.9,48.9,56.6,56.6C365.1,211.2,365.1,217.6,361.2,221.5L361.2,221.5z M354.1,172
		L340,157.9l25.9-25.9l14.1,14.1L354.1,172z"/>
	<path d="M369,372v140h120V372h23v-60h-42.8c-10,8.8-3.9,20,4.8,20h18v20H366v-20h22.8c10-8.8,3.9-20-4.8-20h-38v60H369z M389,492
		v-70c12.3,0.3,24.5,3.4,35.5,8.9c13.8,6.9,29.1,10.7,44.5,11v50H389z M469,372v50c-12.3-0.3-24.5-3.4-35.5-8.9
		c-13.8-6.9-29.1-10.7-44.5-11v-30H469z"/>
	<circle cx="429" cy="322" r="10"/>
</g>
<path d="M389,322h90.9H389z"/>
<rect x="375.9" y="312" width="104" height="20"/>
</svg>
